<svg width="48" height="48" viewBox="0 0 48 48" fill="none" xmlns="http://www.w3.org/2000/svg">
<path d="M24.012 8.59009C18.672 8.59009 13.336 10.1581 8.722 13.2961H0L3.926 17.5661C2.13721 19.1958 0.883234 21.3286 0.328801 23.6841C-0.225633 26.0396 -0.054589 28.5077 0.819462 30.7643C1.69351 33.0208 3.22969 34.9601 5.22618 36.3276C7.22268 37.695 9.58611 38.4265 12.006 38.4261C15.0296 38.4287 17.9419 37.2853 20.156 35.2261L24 39.4101L27.844 35.2301C30.0568 37.2871 32.9668 38.4291 35.988 38.4261C39.1699 38.4261 42.2215 37.1624 44.4719 34.9128C46.7222 32.6632 47.9869 29.612 47.988 26.4301C47.9899 24.7613 47.6426 23.1107 46.9685 21.5841C46.2945 20.0576 45.3085 18.6889 44.074 17.5661L48 13.2961H39.3C34.7923 10.2275 29.465 8.58765 24.012 8.59009ZM24 12.5101C27.062 12.5101 30.126 13.1161 33.008 14.3161C27.886 16.2761 24 20.8601 24 26.2001C24 20.8581 20.116 16.2761 14.992 14.3161C17.8463 13.1265 20.9077 12.5114 24 12.5101ZM12.004 18.3141C13.0701 18.3141 14.1257 18.5241 15.1106 18.932C16.0955 19.34 16.9905 19.938 17.7443 20.6918C18.4981 21.4456 19.0961 22.3405 19.5041 23.3255C19.912 24.3104 20.122 25.366 20.122 26.4321C20.122 27.4982 19.912 28.5538 19.5041 29.5387C19.0961 30.5236 18.4981 31.4186 17.7443 32.1724C16.9905 32.9262 16.0955 33.5242 15.1106 33.9321C14.1257 34.3401 13.0701 34.5501 12.004 34.5501C9.85097 34.5501 7.78613 33.6948 6.26371 32.1724C4.74129 30.65 3.886 28.5851 3.886 26.4321C3.886 24.2791 4.74129 22.2142 6.26371 20.6918C7.78613 19.1694 9.85097 18.3141 12.004 18.3141ZM35.988 18.3181C37.0537 18.3177 38.109 18.5272 39.0937 18.9347C40.0784 19.3421 40.9732 19.9395 41.7271 20.6928C42.4809 21.4461 43.079 22.3404 43.4871 23.3248C43.8953 24.3092 44.1056 25.3644 44.106 26.4301C44.1064 27.4958 43.8969 28.5511 43.4894 29.5358C43.082 30.5205 42.4846 31.4153 41.7313 32.1691C40.978 32.923 40.0837 33.521 39.0992 33.9292C38.1148 34.3374 37.0597 34.5477 35.994 34.5481C33.8418 34.5489 31.7774 33.6947 30.2549 32.1734C28.7325 30.6521 27.8768 28.5883 27.876 26.4361C27.8752 24.2839 28.7294 22.2195 30.2507 20.697C31.772 19.1746 33.8358 18.3189 35.988 18.3181ZM12.004 22.1781C10.8752 22.1781 9.79271 22.6265 8.99455 23.4246C8.1964 24.2228 7.748 25.3053 7.748 26.4341C7.748 27.5629 8.1964 28.6454 8.99455 29.4435C9.79271 30.2417 10.8752 30.6901 12.004 30.6901C13.1328 30.6901 14.2153 30.2417 15.0134 29.4435C15.8116 28.6454 16.26 27.5629 16.26 26.4341C16.26 25.3053 15.8116 24.2228 15.0134 23.4246C14.2153 22.6265 13.1328 22.1781 12.004 22.1781ZM35.988 22.1781C34.8592 22.1781 33.7767 22.6265 32.9786 23.4246C32.1804 24.2228 31.732 25.3053 31.732 26.4341C31.732 27.5629 32.1804 28.6454 32.9786 29.4435C33.7767 30.2417 34.8592 30.6901 35.988 30.6901C37.1168 30.6901 38.1993 30.2417 38.9974 29.4435C39.7956 28.6454 40.244 27.5629 40.244 26.4341C40.244 25.3053 39.7956 24.2228 38.9974 23.4246C38.1993 22.6265 37.1168 22.1781 35.988 22.1781Z" fill="white"/>
</svg>
